<mxfile host="Electron" agent="Mozilla/5.0 (Windows NT 10.0; Win64; x64) AppleWebKit/537.36 (KHTML, like Gecko) draw.io/24.7.8 Chrome/128.0.6613.36 Electron/32.0.1 Safari/537.36" version="24.7.8">
  <diagram name="Сторінка-1" id="72NW0-IZMqamyn4GfcF8">
    <mxGraphModel dx="2266" dy="836" grid="1" gridSize="10" guides="1" tooltips="1" connect="1" arrows="1" fold="1" page="1" pageScale="1" pageWidth="827" pageHeight="1169" math="0" shadow="0">
      <root>
        <mxCell id="0" />
        <mxCell id="1" parent="0" />
        <mxCell id="ynfgdDzRCIX6UgOvVgCQ-3" value="" style="edgeStyle=orthogonalEdgeStyle;rounded=0;orthogonalLoop=1;jettySize=auto;html=1;" parent="1" source="ynfgdDzRCIX6UgOvVgCQ-1" target="ynfgdDzRCIX6UgOvVgCQ-2" edge="1">
          <mxGeometry relative="1" as="geometry" />
        </mxCell>
        <mxCell id="ynfgdDzRCIX6UgOvVgCQ-1" value="&lt;span style=&quot;font-size: 20px;&quot;&gt;start&lt;/span&gt;" style="strokeWidth=2;html=1;shape=mxgraph.flowchart.start_1;whiteSpace=wrap;" parent="1" vertex="1">
          <mxGeometry x="350" y="40" width="200" height="60" as="geometry" />
        </mxCell>
        <mxCell id="ynfgdDzRCIX6UgOvVgCQ-5" value="" style="edgeStyle=orthogonalEdgeStyle;rounded=0;orthogonalLoop=1;jettySize=auto;html=1;" parent="1" source="ynfgdDzRCIX6UgOvVgCQ-2" target="ynfgdDzRCIX6UgOvVgCQ-4" edge="1">
          <mxGeometry relative="1" as="geometry" />
        </mxCell>
        <mxCell id="ynfgdDzRCIX6UgOvVgCQ-12" value="" style="edgeStyle=orthogonalEdgeStyle;rounded=0;orthogonalLoop=1;jettySize=auto;html=1;" parent="1" target="ynfgdDzRCIX6UgOvVgCQ-11" edge="1">
          <mxGeometry relative="1" as="geometry">
            <mxPoint x="374" y="195" as="sourcePoint" />
          </mxGeometry>
        </mxCell>
        <mxCell id="ynfgdDzRCIX6UgOvVgCQ-2" value="&lt;font style=&quot;font-size: 20px;&quot;&gt;i=0;i&amp;lt;4;i++&lt;/font&gt;" style="rhombus;whiteSpace=wrap;html=1;strokeWidth=2;" parent="1" vertex="1">
          <mxGeometry x="375" y="130" width="150" height="130" as="geometry" />
        </mxCell>
        <mxCell id="ynfgdDzRCIX6UgOvVgCQ-6" style="rounded=0;orthogonalLoop=1;jettySize=auto;html=1;elbow=vertical;edgeStyle=orthogonalEdgeStyle;exitX=1;exitY=0.5;exitDx=0;exitDy=0;" parent="1" source="ynfgdDzRCIX6UgOvVgCQ-4" edge="1">
          <mxGeometry relative="1" as="geometry">
            <mxPoint x="450" y="120" as="targetPoint" />
            <Array as="points">
              <mxPoint x="650" y="353" />
              <mxPoint x="650" y="120" />
            </Array>
          </mxGeometry>
        </mxCell>
        <mxCell id="ynfgdDzRCIX6UgOvVgCQ-4" value="&lt;font style=&quot;font-size: 20px;&quot;&gt;h[i]&lt;/font&gt;" style="shape=parallelogram;perimeter=parallelogramPerimeter;whiteSpace=wrap;html=1;fixedSize=1;strokeWidth=2;" parent="1" vertex="1">
          <mxGeometry x="360" y="305" width="180" height="85" as="geometry" />
        </mxCell>
        <mxCell id="ynfgdDzRCIX6UgOvVgCQ-16" value="" style="edgeStyle=orthogonalEdgeStyle;rounded=0;orthogonalLoop=1;jettySize=auto;html=1;" parent="1" source="ynfgdDzRCIX6UgOvVgCQ-11" target="ynfgdDzRCIX6UgOvVgCQ-15" edge="1">
          <mxGeometry relative="1" as="geometry" />
        </mxCell>
        <mxCell id="ynfgdDzRCIX6UgOvVgCQ-27" value="" style="edgeStyle=orthogonalEdgeStyle;rounded=0;orthogonalLoop=1;jettySize=auto;html=1;" parent="1" source="ynfgdDzRCIX6UgOvVgCQ-11" target="ynfgdDzRCIX6UgOvVgCQ-26" edge="1">
          <mxGeometry relative="1" as="geometry" />
        </mxCell>
        <mxCell id="ynfgdDzRCIX6UgOvVgCQ-11" value="&lt;font style=&quot;font-size: 20px;&quot;&gt;i=0;i&amp;lt;4;i++&lt;/font&gt;" style="rhombus;whiteSpace=wrap;html=1;strokeWidth=2;" parent="1" vertex="1">
          <mxGeometry x="-2.5" y="260" width="150" height="130" as="geometry" />
        </mxCell>
        <mxCell id="ynfgdDzRCIX6UgOvVgCQ-17" style="edgeStyle=orthogonalEdgeStyle;rounded=0;orthogonalLoop=1;jettySize=auto;html=1;exitX=0;exitY=0.5;exitDx=0;exitDy=0;" parent="1" source="ynfgdDzRCIX6UgOvVgCQ-19" edge="1">
          <mxGeometry relative="1" as="geometry">
            <mxPoint x="74" y="220" as="targetPoint" />
            <mxPoint x="-30" y="455" as="sourcePoint" />
            <Array as="points">
              <mxPoint x="-91" y="615" />
              <mxPoint x="-91" y="220" />
            </Array>
          </mxGeometry>
        </mxCell>
        <mxCell id="ynfgdDzRCIX6UgOvVgCQ-20" value="" style="edgeStyle=orthogonalEdgeStyle;rounded=0;orthogonalLoop=1;jettySize=auto;html=1;" parent="1" source="ynfgdDzRCIX6UgOvVgCQ-15" target="ynfgdDzRCIX6UgOvVgCQ-19" edge="1">
          <mxGeometry relative="1" as="geometry" />
        </mxCell>
        <mxCell id="ynfgdDzRCIX6UgOvVgCQ-15" value="&lt;font style=&quot;font-size: 20px;&quot;&gt;d[i]&lt;/font&gt;" style="shape=parallelogram;perimeter=parallelogramPerimeter;whiteSpace=wrap;html=1;fixedSize=1;strokeWidth=2;" parent="1" vertex="1">
          <mxGeometry x="-23.12" y="430" width="190" height="85" as="geometry" />
        </mxCell>
        <mxCell id="ynfgdDzRCIX6UgOvVgCQ-22" value="" style="edgeStyle=orthogonalEdgeStyle;rounded=0;orthogonalLoop=1;jettySize=auto;html=1;" parent="1" source="ynfgdDzRCIX6UgOvVgCQ-19" target="ynfgdDzRCIX6UgOvVgCQ-21" edge="1">
          <mxGeometry relative="1" as="geometry" />
        </mxCell>
        <mxCell id="ynfgdDzRCIX6UgOvVgCQ-19" value="&lt;font style=&quot;font-size: 20px;&quot;&gt;h[i]&amp;lt;d[i]&lt;/font&gt;" style="rhombus;whiteSpace=wrap;html=1;strokeWidth=2;" parent="1" vertex="1">
          <mxGeometry x="-3.74" y="550" width="152.5" height="130" as="geometry" />
        </mxCell>
        <mxCell id="ynfgdDzRCIX6UgOvVgCQ-53" style="edgeStyle=orthogonalEdgeStyle;rounded=0;orthogonalLoop=1;jettySize=auto;html=1;entryX=0;entryY=0.5;entryDx=0;entryDy=0;" parent="1" source="ynfgdDzRCIX6UgOvVgCQ-21" target="ynfgdDzRCIX6UgOvVgCQ-50" edge="1">
          <mxGeometry relative="1" as="geometry">
            <Array as="points">
              <mxPoint x="70" y="1140" />
            </Array>
          </mxGeometry>
        </mxCell>
        <mxCell id="ynfgdDzRCIX6UgOvVgCQ-21" value="&lt;font style=&quot;font-size: 20px;&quot;&gt;&quot;ERROR&quot;&lt;/font&gt;" style="shape=parallelogram;perimeter=parallelogramPerimeter;whiteSpace=wrap;html=1;fixedSize=1;strokeWidth=2;" parent="1" vertex="1">
          <mxGeometry x="-23.12" y="720" width="191.25" height="90" as="geometry" />
        </mxCell>
        <mxCell id="ynfgdDzRCIX6UgOvVgCQ-29" value="" style="edgeStyle=orthogonalEdgeStyle;rounded=0;orthogonalLoop=1;jettySize=auto;html=1;" parent="1" source="ynfgdDzRCIX6UgOvVgCQ-26" target="ynfgdDzRCIX6UgOvVgCQ-28" edge="1">
          <mxGeometry relative="1" as="geometry" />
        </mxCell>
        <mxCell id="ynfgdDzRCIX6UgOvVgCQ-41" value="" style="edgeStyle=orthogonalEdgeStyle;rounded=0;orthogonalLoop=1;jettySize=auto;html=1;" parent="1" source="ynfgdDzRCIX6UgOvVgCQ-26" target="ynfgdDzRCIX6UgOvVgCQ-40" edge="1">
          <mxGeometry relative="1" as="geometry" />
        </mxCell>
        <mxCell id="ynfgdDzRCIX6UgOvVgCQ-26" value="&lt;font style=&quot;font-size: 20px;&quot;&gt;i=0;i&amp;lt;4;i++&lt;/font&gt;" style="rhombus;whiteSpace=wrap;html=1;strokeWidth=2;" parent="1" vertex="1">
          <mxGeometry x="217.5" y="420" width="145" height="120" as="geometry" />
        </mxCell>
        <mxCell id="ynfgdDzRCIX6UgOvVgCQ-31" value="" style="edgeStyle=orthogonalEdgeStyle;rounded=0;orthogonalLoop=1;jettySize=auto;html=1;" parent="1" source="ynfgdDzRCIX6UgOvVgCQ-28" target="ynfgdDzRCIX6UgOvVgCQ-30" edge="1">
          <mxGeometry relative="1" as="geometry" />
        </mxCell>
        <mxCell id="ynfgdDzRCIX6UgOvVgCQ-28" value="&lt;font style=&quot;font-size: 20px;&quot;&gt;h[i]-=d[i]&lt;/font&gt;" style="whiteSpace=wrap;html=1;strokeWidth=2;" parent="1" vertex="1">
          <mxGeometry x="206.25" y="580" width="167.5" height="82.5" as="geometry" />
        </mxCell>
        <mxCell id="ynfgdDzRCIX6UgOvVgCQ-33" value="" style="edgeStyle=orthogonalEdgeStyle;rounded=0;orthogonalLoop=1;jettySize=auto;html=1;" parent="1" source="ynfgdDzRCIX6UgOvVgCQ-30" target="ynfgdDzRCIX6UgOvVgCQ-32" edge="1">
          <mxGeometry relative="1" as="geometry" />
        </mxCell>
        <mxCell id="ynfgdDzRCIX6UgOvVgCQ-39" style="edgeStyle=orthogonalEdgeStyle;rounded=0;orthogonalLoop=1;jettySize=auto;html=1;exitX=0;exitY=0.5;exitDx=0;exitDy=0;" parent="1" source="ynfgdDzRCIX6UgOvVgCQ-30" edge="1">
          <mxGeometry relative="1" as="geometry">
            <mxPoint x="290" y="370" as="targetPoint" />
            <Array as="points">
              <mxPoint x="190" y="765" />
              <mxPoint x="190" y="370" />
            </Array>
          </mxGeometry>
        </mxCell>
        <mxCell id="ynfgdDzRCIX6UgOvVgCQ-30" value="&lt;div&gt;&lt;font style=&quot;font-size: 20px;&quot;&gt;j=0;j&amp;lt;4;j++&lt;/font&gt;&lt;/div&gt;" style="rhombus;whiteSpace=wrap;html=1;strokeWidth=2;" parent="1" vertex="1">
          <mxGeometry x="225" y="710" width="130" height="110" as="geometry" />
        </mxCell>
        <mxCell id="ynfgdDzRCIX6UgOvVgCQ-35" value="" style="edgeStyle=orthogonalEdgeStyle;rounded=0;orthogonalLoop=1;jettySize=auto;html=1;" parent="1" source="ynfgdDzRCIX6UgOvVgCQ-32" target="ynfgdDzRCIX6UgOvVgCQ-34" edge="1">
          <mxGeometry relative="1" as="geometry" />
        </mxCell>
        <mxCell id="ynfgdDzRCIX6UgOvVgCQ-32" value="&lt;font style=&quot;font-size: 20px;&quot;&gt;h[j]&amp;gt;=h[i]*2&lt;/font&gt;" style="rhombus;whiteSpace=wrap;html=1;strokeWidth=2;" parent="1" vertex="1">
          <mxGeometry x="230" y="840" width="120" height="120" as="geometry" />
        </mxCell>
        <mxCell id="ynfgdDzRCIX6UgOvVgCQ-36" style="rounded=0;orthogonalLoop=1;jettySize=auto;html=1;exitX=1;exitY=0.75;exitDx=0;exitDy=0;edgeStyle=orthogonalEdgeStyle;" parent="1" source="ynfgdDzRCIX6UgOvVgCQ-34" edge="1">
          <mxGeometry relative="1" as="geometry">
            <mxPoint x="290" y="680" as="targetPoint" />
            <mxPoint x="380" y="1020" as="sourcePoint" />
            <Array as="points">
              <mxPoint x="395" y="1040" />
              <mxPoint x="395" y="680" />
              <mxPoint x="291" y="680" />
            </Array>
          </mxGeometry>
        </mxCell>
        <mxCell id="ynfgdDzRCIX6UgOvVgCQ-34" value="&lt;font style=&quot;font-size: 20px;&quot;&gt;overturn=1&lt;/font&gt;" style="whiteSpace=wrap;html=1;strokeWidth=2;" parent="1" vertex="1">
          <mxGeometry x="205" y="980" width="170" height="80" as="geometry" />
        </mxCell>
        <mxCell id="ynfgdDzRCIX6UgOvVgCQ-43" value="" style="edgeStyle=orthogonalEdgeStyle;rounded=0;orthogonalLoop=1;jettySize=auto;html=1;" parent="1" source="ynfgdDzRCIX6UgOvVgCQ-40" target="ynfgdDzRCIX6UgOvVgCQ-42" edge="1">
          <mxGeometry relative="1" as="geometry" />
        </mxCell>
        <mxCell id="ynfgdDzRCIX6UgOvVgCQ-45" value="" style="edgeStyle=orthogonalEdgeStyle;rounded=0;orthogonalLoop=1;jettySize=auto;html=1;" parent="1" source="ynfgdDzRCIX6UgOvVgCQ-40" target="ynfgdDzRCIX6UgOvVgCQ-44" edge="1">
          <mxGeometry relative="1" as="geometry" />
        </mxCell>
        <mxCell id="ynfgdDzRCIX6UgOvVgCQ-40" value="&lt;font style=&quot;font-size: 20px;&quot;&gt;overturn=1&lt;/font&gt;" style="rhombus;whiteSpace=wrap;html=1;strokeWidth=2;" parent="1" vertex="1">
          <mxGeometry x="440" y="556.25" width="135" height="130" as="geometry" />
        </mxCell>
        <mxCell id="ynfgdDzRCIX6UgOvVgCQ-51" value="" style="edgeStyle=orthogonalEdgeStyle;rounded=0;orthogonalLoop=1;jettySize=auto;html=1;" parent="1" source="ynfgdDzRCIX6UgOvVgCQ-42" target="ynfgdDzRCIX6UgOvVgCQ-50" edge="1">
          <mxGeometry relative="1" as="geometry" />
        </mxCell>
        <mxCell id="ynfgdDzRCIX6UgOvVgCQ-42" value="&lt;font style=&quot;font-size: 20px;&quot;&gt;&quot;NO&quot;&lt;/font&gt;" style="shape=parallelogram;perimeter=parallelogramPerimeter;whiteSpace=wrap;html=1;fixedSize=1;strokeWidth=2;" parent="1" vertex="1">
          <mxGeometry x="416.25" y="720" width="182.5" height="90" as="geometry" />
        </mxCell>
        <mxCell id="ynfgdDzRCIX6UgOvVgCQ-52" style="edgeStyle=orthogonalEdgeStyle;rounded=0;orthogonalLoop=1;jettySize=auto;html=1;" parent="1" source="ynfgdDzRCIX6UgOvVgCQ-44" edge="1">
          <mxGeometry relative="1" as="geometry">
            <mxPoint x="510" y="920" as="targetPoint" />
            <Array as="points">
              <mxPoint x="721" y="920" />
            </Array>
          </mxGeometry>
        </mxCell>
        <mxCell id="ynfgdDzRCIX6UgOvVgCQ-44" value="&lt;font style=&quot;font-size: 20px;&quot;&gt;&quot;YES&quot;&lt;/font&gt;" style="shape=parallelogram;perimeter=parallelogramPerimeter;whiteSpace=wrap;html=1;fixedSize=1;strokeWidth=2;" parent="1" vertex="1">
          <mxGeometry x="640" y="720" width="162.5" height="88.75" as="geometry" />
        </mxCell>
        <mxCell id="ynfgdDzRCIX6UgOvVgCQ-50" value="&lt;font style=&quot;font-size: 20px;&quot;&gt;end&lt;/font&gt;" style="ellipse;whiteSpace=wrap;html=1;strokeWidth=2;" parent="1" vertex="1">
          <mxGeometry x="317" y="1100" width="192.5" height="80" as="geometry" />
        </mxCell>
        <mxCell id="SGMt56AXd4LG8W20rWlH-1" value="&lt;font style=&quot;font-size: 20px;&quot;&gt;ні&lt;/font&gt;" style="text;html=1;align=center;verticalAlign=middle;resizable=0;points=[];autosize=1;strokeColor=none;fillColor=none;" vertex="1" parent="1">
          <mxGeometry x="330" y="153" width="40" height="40" as="geometry" />
        </mxCell>
        <mxCell id="SGMt56AXd4LG8W20rWlH-2" value="&lt;font style=&quot;font-size: 20px;&quot;&gt;ні&lt;/font&gt;" style="text;html=1;align=center;verticalAlign=middle;resizable=0;points=[];autosize=1;strokeColor=none;fillColor=none;" vertex="1" parent="1">
          <mxGeometry x="150" y="283" width="40" height="40" as="geometry" />
        </mxCell>
        <mxCell id="SGMt56AXd4LG8W20rWlH-3" value="&lt;font style=&quot;font-size: 20px;&quot;&gt;ні&lt;/font&gt;" style="text;html=1;align=center;verticalAlign=middle;resizable=0;points=[];autosize=1;strokeColor=none;fillColor=none;" vertex="1" parent="1">
          <mxGeometry x="-40" y="573" width="40" height="40" as="geometry" />
        </mxCell>
        <mxCell id="SGMt56AXd4LG8W20rWlH-4" value="&lt;font style=&quot;font-size: 20px;&quot;&gt;ні&lt;/font&gt;" style="text;html=1;align=center;verticalAlign=middle;resizable=0;points=[];autosize=1;strokeColor=none;fillColor=none;" vertex="1" parent="1">
          <mxGeometry x="370" y="443" width="40" height="40" as="geometry" />
        </mxCell>
        <mxCell id="SGMt56AXd4LG8W20rWlH-5" value="&lt;font style=&quot;font-size: 20px;&quot;&gt;ні&lt;/font&gt;" style="text;html=1;align=center;verticalAlign=middle;resizable=0;points=[];autosize=1;strokeColor=none;fillColor=none;" vertex="1" parent="1">
          <mxGeometry x="200" y="723" width="40" height="40" as="geometry" />
        </mxCell>
        <mxCell id="SGMt56AXd4LG8W20rWlH-6" value="&lt;font style=&quot;font-size: 20px;&quot;&gt;ні&lt;/font&gt;" style="text;html=1;align=center;verticalAlign=middle;resizable=0;points=[];autosize=1;strokeColor=none;fillColor=none;" vertex="1" parent="1">
          <mxGeometry x="570" y="583" width="40" height="40" as="geometry" />
        </mxCell>
        <mxCell id="SGMt56AXd4LG8W20rWlH-7" value="&lt;font style=&quot;font-size: 20px;&quot;&gt;так&lt;/font&gt;" style="text;html=1;align=center;verticalAlign=middle;resizable=0;points=[];autosize=1;strokeColor=none;fillColor=none;" vertex="1" parent="1">
          <mxGeometry x="285" y="943" width="50" height="40" as="geometry" />
        </mxCell>
      </root>
    </mxGraphModel>
  </diagram>
</mxfile>
